<?xml version="1.0" standalone="no"?><svg xmlns="http://www.w3.org/2000/svg" viewBox="0 0 1440 320"><path fill="#000b76" fill-opacity="1" d="M0,160L24,138.7C48,117,96,75,144,80C192,85,240,139,288,181.3C336,224,384,256,432,261.3C480,267,528,245,576,218.7C624,192,672,160,720,122.7C768,85,816,43,864,64C912,85,960,171,1008,208C1056,245,1104,235,1152,202.7C1200,171,1248,117,1296,128C1344,139,1392,213,1416,250.7L1440,288L1440,0L1416,0C1392,0,1344,0,1296,0C1248,0,1200,0,1152,0C1104,0,1056,0,1008,0C960,0,912,0,864,0C816,0,768,0,720,0C672,0,624,0,576,0C528,0,480,0,432,0C384,0,336,0,288,0C240,0,192,0,144,0C96,0,48,0,24,0L0,0Z"></path></svg>